<mxfile host="app.diagrams.net" agent="Mozilla/5.0 (Windows NT 10.0; Win64; x64) AppleWebKit/537.36 (KHTML, like Gecko) Chrome/129.0.0.0 Safari/537.36" version="24.7.16">
  <diagram id="C5RBs43oDa-KdzZeNtuy" name="Carabao Remote App">
    <mxGraphModel dx="1050" dy="618" grid="1" gridSize="10" guides="1" tooltips="1" connect="1" arrows="1" fold="1" page="1" pageScale="1" pageWidth="827" pageHeight="1169" math="0" shadow="0">
      <root>
        <mxCell id="WIyWlLk6GJQsqaUBKTNV-0" />
        <mxCell id="WIyWlLk6GJQsqaUBKTNV-1" parent="WIyWlLk6GJQsqaUBKTNV-0" />
        <mxCell id="vWDTnNbjVzDBQWKzYrIo-12" style="edgeStyle=orthogonalEdgeStyle;rounded=0;orthogonalLoop=1;jettySize=auto;html=1;entryX=0.5;entryY=0;entryDx=0;entryDy=0;" edge="1" parent="WIyWlLk6GJQsqaUBKTNV-1" source="WIyWlLk6GJQsqaUBKTNV-3" target="vWDTnNbjVzDBQWKzYrIo-11">
          <mxGeometry relative="1" as="geometry" />
        </mxCell>
        <mxCell id="vWDTnNbjVzDBQWKzYrIo-23" style="edgeStyle=orthogonalEdgeStyle;rounded=0;orthogonalLoop=1;jettySize=auto;html=1;entryX=0;entryY=0.5;entryDx=0;entryDy=0;" edge="1" parent="WIyWlLk6GJQsqaUBKTNV-1" source="WIyWlLk6GJQsqaUBKTNV-3" target="vWDTnNbjVzDBQWKzYrIo-22">
          <mxGeometry relative="1" as="geometry" />
        </mxCell>
        <mxCell id="WIyWlLk6GJQsqaUBKTNV-3" value="Pilih Meja" style="rounded=1;whiteSpace=wrap;html=1;fontSize=12;glass=0;strokeWidth=1;shadow=0;" parent="WIyWlLk6GJQsqaUBKTNV-1" vertex="1">
          <mxGeometry x="110" y="110" width="120" height="40" as="geometry" />
        </mxCell>
        <mxCell id="vWDTnNbjVzDBQWKzYrIo-7" style="edgeStyle=orthogonalEdgeStyle;rounded=0;orthogonalLoop=1;jettySize=auto;html=1;entryX=0.5;entryY=0;entryDx=0;entryDy=0;" edge="1" parent="WIyWlLk6GJQsqaUBKTNV-1" source="vWDTnNbjVzDBQWKzYrIo-0" target="vWDTnNbjVzDBQWKzYrIo-6">
          <mxGeometry relative="1" as="geometry" />
        </mxCell>
        <mxCell id="vWDTnNbjVzDBQWKzYrIo-0" value="Set Timer" style="rounded=1;whiteSpace=wrap;html=1;" vertex="1" parent="WIyWlLk6GJQsqaUBKTNV-1">
          <mxGeometry x="350" y="219.5" width="120" height="40" as="geometry" />
        </mxCell>
        <mxCell id="vWDTnNbjVzDBQWKzYrIo-2" value="Database" style="shape=cylinder3;whiteSpace=wrap;html=1;boundedLbl=1;backgroundOutline=1;size=15;" vertex="1" parent="WIyWlLk6GJQsqaUBKTNV-1">
          <mxGeometry x="560" y="202" width="60" height="75" as="geometry" />
        </mxCell>
        <mxCell id="vWDTnNbjVzDBQWKzYrIo-3" style="edgeStyle=orthogonalEdgeStyle;rounded=0;orthogonalLoop=1;jettySize=auto;html=1;entryX=0;entryY=0.5;entryDx=0;entryDy=0;entryPerimeter=0;" edge="1" parent="WIyWlLk6GJQsqaUBKTNV-1" source="vWDTnNbjVzDBQWKzYrIo-0" target="vWDTnNbjVzDBQWKzYrIo-2">
          <mxGeometry relative="1" as="geometry" />
        </mxCell>
        <mxCell id="vWDTnNbjVzDBQWKzYrIo-4" value="" style="shape=mxgraph.mockup.markup.redX;fillColor=#ff0000;html=1;shadow=0;whiteSpace=wrap;strokeColor=none;" vertex="1" parent="WIyWlLk6GJQsqaUBKTNV-1">
          <mxGeometry x="500" y="224.5" width="30" height="30" as="geometry" />
        </mxCell>
        <mxCell id="vWDTnNbjVzDBQWKzYrIo-5" value="&lt;h1 style=&quot;margin-top: 0px;&quot;&gt;Remote Control Carabao&lt;/h1&gt;&lt;p&gt;Hanya set timer tanpa ada penyimpanan data ke database&lt;/p&gt;" style="text;html=1;whiteSpace=wrap;overflow=hidden;rounded=0;" vertex="1" parent="WIyWlLk6GJQsqaUBKTNV-1">
          <mxGeometry x="10" y="10" width="290" height="80" as="geometry" />
        </mxCell>
        <mxCell id="vWDTnNbjVzDBQWKzYrIo-10" style="edgeStyle=orthogonalEdgeStyle;rounded=0;orthogonalLoop=1;jettySize=auto;html=1;entryX=0;entryY=0.5;entryDx=0;entryDy=0;" edge="1" parent="WIyWlLk6GJQsqaUBKTNV-1" source="vWDTnNbjVzDBQWKzYrIo-6" target="vWDTnNbjVzDBQWKzYrIo-8">
          <mxGeometry relative="1" as="geometry">
            <mxPoint x="520" y="349.5" as="targetPoint" />
          </mxGeometry>
        </mxCell>
        <mxCell id="vWDTnNbjVzDBQWKzYrIo-6" value="Timer reached?" style="rhombus;whiteSpace=wrap;html=1;" vertex="1" parent="WIyWlLk6GJQsqaUBKTNV-1">
          <mxGeometry x="370" y="309.5" width="80" height="80" as="geometry" />
        </mxCell>
        <mxCell id="vWDTnNbjVzDBQWKzYrIo-15" style="edgeStyle=orthogonalEdgeStyle;rounded=0;orthogonalLoop=1;jettySize=auto;html=1;" edge="1" parent="WIyWlLk6GJQsqaUBKTNV-1" source="vWDTnNbjVzDBQWKzYrIo-8">
          <mxGeometry relative="1" as="geometry">
            <mxPoint x="590" y="280" as="targetPoint" />
          </mxGeometry>
        </mxCell>
        <mxCell id="vWDTnNbjVzDBQWKzYrIo-8" value="Matikan Meja" style="rounded=1;whiteSpace=wrap;html=1;" vertex="1" parent="WIyWlLk6GJQsqaUBKTNV-1">
          <mxGeometry x="530" y="329.5" width="120" height="40" as="geometry" />
        </mxCell>
        <mxCell id="vWDTnNbjVzDBQWKzYrIo-13" style="edgeStyle=orthogonalEdgeStyle;rounded=0;orthogonalLoop=1;jettySize=auto;html=1;entryX=0;entryY=0.5;entryDx=0;entryDy=0;" edge="1" parent="WIyWlLk6GJQsqaUBKTNV-1" source="vWDTnNbjVzDBQWKzYrIo-11" target="vWDTnNbjVzDBQWKzYrIo-0">
          <mxGeometry relative="1" as="geometry" />
        </mxCell>
        <mxCell id="vWDTnNbjVzDBQWKzYrIo-14" value="Billing" style="edgeLabel;html=1;align=center;verticalAlign=middle;resizable=0;points=[];" vertex="1" connectable="0" parent="vWDTnNbjVzDBQWKzYrIo-13">
          <mxGeometry x="-0.171" y="-1" relative="1" as="geometry">
            <mxPoint as="offset" />
          </mxGeometry>
        </mxCell>
        <mxCell id="vWDTnNbjVzDBQWKzYrIo-17" style="edgeStyle=orthogonalEdgeStyle;rounded=0;orthogonalLoop=1;jettySize=auto;html=1;entryX=0.5;entryY=0;entryDx=0;entryDy=0;" edge="1" parent="WIyWlLk6GJQsqaUBKTNV-1" source="vWDTnNbjVzDBQWKzYrIo-11" target="vWDTnNbjVzDBQWKzYrIo-16">
          <mxGeometry relative="1" as="geometry" />
        </mxCell>
        <mxCell id="vWDTnNbjVzDBQWKzYrIo-11" value="Open Table/Billing?" style="rhombus;whiteSpace=wrap;html=1;" vertex="1" parent="WIyWlLk6GJQsqaUBKTNV-1">
          <mxGeometry x="100" y="200" width="140" height="80" as="geometry" />
        </mxCell>
        <mxCell id="vWDTnNbjVzDBQWKzYrIo-16" value="Request Selesai" style="rounded=1;whiteSpace=wrap;html=1;" vertex="1" parent="WIyWlLk6GJQsqaUBKTNV-1">
          <mxGeometry x="110" y="340" width="120" height="40" as="geometry" />
        </mxCell>
        <mxCell id="vWDTnNbjVzDBQWKzYrIo-18" value="" style="shape=mxgraph.mockup.markup.redX;fillColor=#ff0000;html=1;shadow=0;whiteSpace=wrap;strokeColor=none;" vertex="1" parent="WIyWlLk6GJQsqaUBKTNV-1">
          <mxGeometry x="575" y="290" width="30" height="30" as="geometry" />
        </mxCell>
        <mxCell id="vWDTnNbjVzDBQWKzYrIo-19" value="Database" style="shape=cylinder3;whiteSpace=wrap;html=1;boundedLbl=1;backgroundOutline=1;size=15;" vertex="1" parent="WIyWlLk6GJQsqaUBKTNV-1">
          <mxGeometry x="140" y="440" width="60" height="75" as="geometry" />
        </mxCell>
        <mxCell id="vWDTnNbjVzDBQWKzYrIo-20" style="edgeStyle=orthogonalEdgeStyle;rounded=0;orthogonalLoop=1;jettySize=auto;html=1;entryX=0.5;entryY=0;entryDx=0;entryDy=0;entryPerimeter=0;" edge="1" parent="WIyWlLk6GJQsqaUBKTNV-1" source="vWDTnNbjVzDBQWKzYrIo-16" target="vWDTnNbjVzDBQWKzYrIo-19">
          <mxGeometry relative="1" as="geometry" />
        </mxCell>
        <mxCell id="vWDTnNbjVzDBQWKzYrIo-21" value="" style="shape=mxgraph.mockup.markup.redX;fillColor=#ff0000;html=1;shadow=0;whiteSpace=wrap;strokeColor=none;" vertex="1" parent="WIyWlLk6GJQsqaUBKTNV-1">
          <mxGeometry x="155" y="390" width="30" height="30" as="geometry" />
        </mxCell>
        <mxCell id="vWDTnNbjVzDBQWKzYrIo-22" value="Paksa hidup/mati-kan lampu" style="rounded=1;whiteSpace=wrap;html=1;" vertex="1" parent="WIyWlLk6GJQsqaUBKTNV-1">
          <mxGeometry x="300" y="110" width="160" height="40" as="geometry" />
        </mxCell>
        <mxCell id="vWDTnNbjVzDBQWKzYrIo-24" value="Database" style="shape=cylinder3;whiteSpace=wrap;html=1;boundedLbl=1;backgroundOutline=1;size=15;" vertex="1" parent="WIyWlLk6GJQsqaUBKTNV-1">
          <mxGeometry x="570" y="92.5" width="60" height="75" as="geometry" />
        </mxCell>
        <mxCell id="vWDTnNbjVzDBQWKzYrIo-25" style="edgeStyle=orthogonalEdgeStyle;rounded=0;orthogonalLoop=1;jettySize=auto;html=1;entryX=0;entryY=0.5;entryDx=0;entryDy=0;entryPerimeter=0;" edge="1" parent="WIyWlLk6GJQsqaUBKTNV-1" source="vWDTnNbjVzDBQWKzYrIo-22" target="vWDTnNbjVzDBQWKzYrIo-24">
          <mxGeometry relative="1" as="geometry" />
        </mxCell>
        <mxCell id="vWDTnNbjVzDBQWKzYrIo-26" value="" style="shape=mxgraph.mockup.markup.redX;fillColor=#ff0000;html=1;shadow=0;whiteSpace=wrap;strokeColor=none;" vertex="1" parent="WIyWlLk6GJQsqaUBKTNV-1">
          <mxGeometry x="500" y="115" width="30" height="30" as="geometry" />
        </mxCell>
      </root>
    </mxGraphModel>
  </diagram>
</mxfile>
